<svg width="76" height="17" viewBox="0 0 76 17" fill="none" xmlns="http://www.w3.org/2000/svg">
<path d="M35.999 16C40.4173 16 43.999 12.4183 43.999 8C43.999 3.58172 40.4173 0 35.999 0C31.5807 0 27.999 3.58172 27.999 8C27.999 12.4183 31.5807 16 35.999 16Z" fill="#2DAAE1"/>
<path d="M41.097 4.83402C40.7157 5.00301 40.3112 5.11391 39.897 5.16302C40.3338 4.90159 40.6607 4.49044 40.817 4.00602C40.4066 4.24997 39.9574 4.42178 39.489 4.51401C39.2021 4.20803 38.8298 3.99537 38.4204 3.90365C38.0111 3.81193 37.5837 3.84539 37.1936 3.99967C36.8035 4.15396 36.4688 4.42193 36.233 4.76884C35.9971 5.11574 35.871 5.52553 35.871 5.94501C35.8708 6.10555 35.889 6.26558 35.925 6.42202C35.0934 6.38036 34.2799 6.1643 33.5372 5.78788C32.7945 5.41145 32.1393 4.88307 31.614 4.23702C31.3467 4.69745 31.2648 5.24239 31.385 5.76104C31.5052 6.27968 31.8184 6.73308 32.261 7.02901C31.929 7.01879 31.6043 6.9293 31.314 6.76801V6.79401C31.3139 7.27704 31.481 7.74523 31.7868 8.11909C32.0927 8.49294 32.5185 8.74943 32.992 8.84502C32.8124 8.89389 32.6271 8.91844 32.441 8.91802C32.3088 8.91798 32.1769 8.90559 32.047 8.88102C32.1807 9.2965 32.441 9.65981 32.7913 9.92014C33.1417 10.1805 33.5646 10.3248 34.001 10.333C33.1231 11.0208 32.0082 11.3322 30.901 11.199C31.8 11.775 32.8374 12.0985 33.9044 12.1354C34.9715 12.1723 36.0288 11.9213 36.9654 11.4087C37.902 10.8962 38.6833 10.141 39.2275 9.22242C39.7716 8.30382 40.0585 7.2557 40.058 6.18803C40.058 6.09736 40.056 6.00701 40.052 5.91701C40.4618 5.62086 40.8157 5.25415 41.097 4.83402Z" fill="white"/>
<path d="M15.1191 16C15.3533 16 15.5779 15.907 15.7435 15.7414C15.909 15.5758 16.0021 15.3512 16.0021 15.117V0.883C16.0021 0.648814 15.909 0.424219 15.7435 0.258625C15.5779 0.0930301 15.3533 0 15.1191 0L0.885075 0C0.650889 0 0.426295 0.0930301 0.2607 0.258625C0.0951053 0.424219 0.0020752 0.648814 0.0020752 0.883L0.0020752 15.117C0.0020752 15.3512 0.0951053 15.5758 0.2607 15.7414C0.426295 15.907 0.650889 16 0.885075 16H15.1191Z" fill="#485A96"/>
<path d="M11.042 15.9999V9.80692H13.122L13.433 7.39192H11.042V5.84792C11.042 5.14792 11.236 4.67192 12.242 4.67192H13.521V2.51192C12.9023 2.44473 12.2804 2.41135 11.658 2.41192C11.2348 2.38123 10.81 2.44347 10.4134 2.59427C10.0168 2.74507 9.65793 2.98079 9.36201 3.2849C9.06609 3.58901 8.84026 3.95416 8.70034 4.35476C8.56042 4.75535 8.50981 5.1817 8.55204 5.60392V7.38492H6.46704V9.80692H8.55204V16.0069H11.046L11.042 15.9999Z" fill="white"/>
<path d="M65.334 8C65.334 7.47247 65.4904 6.9568 65.7835 6.51819C66.0766 6.07958 66.4932 5.73775 66.9806 5.53592C67.468 5.33409 68.0043 5.28133 68.5217 5.38432C69.039 5.48731 69.5143 5.74141 69.8872 6.1145C70.2602 6.48759 70.5141 6.96289 70.6169 7.48031C70.7197 7.99772 70.6667 8.534 70.4647 9.02131C70.2627 9.50862 69.9207 9.92508 69.482 10.218C69.0433 10.5109 68.5275 10.6672 68 10.667C67.2928 10.6667 66.6147 10.3856 66.1148 9.8855C65.6148 9.38537 65.334 8.70716 65.334 8V8ZM63.892 8C63.892 8.81249 64.1329 9.60673 64.5843 10.2823C65.0357 10.9578 65.6773 11.4844 66.4279 11.7953C67.1786 12.1062 68.0046 12.1876 68.8014 12.0291C69.5983 11.8706 70.3303 11.4793 70.9048 10.9048C71.4793 10.3303 71.8706 9.5983 72.0291 8.80143C72.1876 8.00456 72.1062 7.17858 71.7953 6.42794C71.4844 5.6773 70.9578 5.03572 70.2823 4.58432C69.6067 4.13293 68.8125 3.892 68 3.892C66.9105 3.892 65.8656 4.32481 65.0952 5.09521C64.3248 5.8656 63.892 6.91049 63.892 8ZM71.31 3.729C71.31 3.91887 71.3663 4.10448 71.4718 4.26235C71.5773 4.42022 71.7272 4.54326 71.9026 4.61592C72.078 4.68858 72.2711 4.7076 72.4573 4.67055C72.6435 4.63351 72.8146 4.54208 72.9488 4.40782C73.0831 4.27356 73.1745 4.10251 73.2116 3.91629C73.2486 3.73006 73.2296 3.53704 73.1569 3.36162C73.0843 3.18621 72.9612 3.03628 72.8033 2.93079C72.6455 2.8253 72.4599 2.769 72.27 2.769C72.0154 2.769 71.7712 2.87014 71.5912 3.05018C71.4111 3.23021 71.31 3.47439 71.31 3.729V3.729ZM64.768 14.512C64.2606 14.5063 63.7579 14.4133 63.282 14.237C62.9344 14.1081 62.6201 13.9031 62.362 13.637C62.0954 13.3793 61.8904 13.0648 61.762 12.717C61.5856 12.2411 61.4926 11.7385 61.487 11.231C61.448 10.388 61.44 10.131 61.44 7.998C61.44 5.865 61.448 5.609 61.487 4.765C61.4933 4.25761 61.5863 3.75504 61.762 3.279C61.8909 2.93143 62.0959 2.6171 62.362 2.359C62.6197 2.09238 62.9341 1.88729 63.282 1.759C63.7579 1.58265 64.2605 1.48962 64.768 1.484C65.611 1.445 65.868 1.437 68 1.437C70.132 1.437 70.389 1.445 71.233 1.484C71.7404 1.49029 72.243 1.5833 72.719 1.759C73.0667 1.88766 73.3811 2.0927 73.639 2.359C73.9053 2.61692 74.1103 2.93131 74.239 3.279C74.4154 3.75486 74.5084 4.25755 74.514 4.765C74.553 5.609 74.561 5.865 74.561 7.998C74.561 10.131 74.553 10.387 74.514 11.231C74.508 11.7384 74.4149 12.241 74.239 12.717C74.1058 13.062 73.9018 13.3754 73.6402 13.6368C73.3786 13.8983 73.0651 14.102 72.72 14.235C72.2441 14.4114 71.7415 14.5044 71.234 14.51C70.391 14.549 70.134 14.557 68.001 14.557C65.868 14.557 65.612 14.549 64.769 14.51L64.768 14.512ZM64.7 0.048C64.037 0.0614449 63.381 0.187228 62.76 0.42C62.2262 0.621021 61.7426 0.936001 61.343 1.343C60.9356 1.74233 60.6206 2.22598 60.42 2.76C60.1873 3.381 60.0615 4.03696 60.048 4.7C60.009 5.555 60 5.827 60 8C60 10.173 60.009 10.445 60.048 11.3C60.0615 11.963 60.1872 12.619 60.42 13.24C60.6206 13.774 60.9357 14.2576 61.343 14.657C61.7428 15.0638 62.2263 15.3787 62.76 15.58C63.3816 15.8129 64.0383 15.9387 64.702 15.952C65.555 15.99 65.827 16 68 16C70.173 16 70.445 15.991 71.3 15.952C71.9637 15.9388 72.6204 15.813 73.242 15.58C73.7735 15.3745 74.2563 15.0602 74.6592 14.6572C75.0622 14.2543 75.3765 13.7715 75.582 13.24C75.8153 12.6185 75.9411 11.9618 75.954 11.298C75.99 10.445 76 10.173 76 8C76 5.827 75.991 5.555 75.952 4.7C75.9386 4.03695 75.8128 3.38099 75.58 2.76C75.3787 2.22634 75.0637 1.74284 74.657 1.343C74.2578 0.935898 73.7746 0.62089 73.241 0.42C72.6197 0.186967 71.9634 0.0611776 71.3 0.048C70.446 0.01 70.173 0 68 0C65.827 0 65.555 0.009 64.7 0.048Z" fill="url(#paint0_radial_5_161)"/>
<path d="M65.334 8C65.334 7.47247 65.4904 6.9568 65.7835 6.51819C66.0766 6.07958 66.4932 5.73775 66.9806 5.53592C67.468 5.33409 68.0043 5.28133 68.5217 5.38432C69.039 5.48731 69.5143 5.74141 69.8872 6.1145C70.2602 6.48759 70.5141 6.96289 70.6169 7.48031C70.7197 7.99772 70.6667 8.534 70.4647 9.02131C70.2627 9.50862 69.9207 9.92508 69.482 10.218C69.0433 10.5109 68.5275 10.6672 68 10.667C67.2928 10.6667 66.6147 10.3856 66.1148 9.8855C65.6148 9.38537 65.334 8.70716 65.334 8V8ZM63.892 8C63.892 8.81249 64.1329 9.60673 64.5843 10.2823C65.0357 10.9578 65.6773 11.4844 66.4279 11.7953C67.1786 12.1062 68.0046 12.1876 68.8014 12.0291C69.5983 11.8706 70.3303 11.4793 70.9048 10.9048C71.4793 10.3303 71.8706 9.5983 72.0291 8.80143C72.1876 8.00456 72.1062 7.17858 71.7953 6.42794C71.4844 5.6773 70.9578 5.03572 70.2823 4.58432C69.6067 4.13293 68.8125 3.892 68 3.892C66.9105 3.892 65.8656 4.32481 65.0952 5.09521C64.3248 5.8656 63.892 6.91049 63.892 8ZM71.31 3.729C71.31 3.91887 71.3663 4.10448 71.4718 4.26235C71.5773 4.42022 71.7272 4.54326 71.9026 4.61592C72.078 4.68858 72.2711 4.7076 72.4573 4.67055C72.6435 4.63351 72.8146 4.54208 72.9488 4.40782C73.0831 4.27356 73.1745 4.10251 73.2116 3.91629C73.2486 3.73006 73.2296 3.53704 73.1569 3.36162C73.0843 3.18621 72.9612 3.03628 72.8033 2.93079C72.6455 2.8253 72.4599 2.769 72.27 2.769C72.0154 2.769 71.7712 2.87014 71.5912 3.05018C71.4111 3.23021 71.31 3.47439 71.31 3.729V3.729ZM64.768 14.512C64.2606 14.5063 63.7579 14.4133 63.282 14.237C62.9344 14.1081 62.6201 13.9031 62.362 13.637C62.0954 13.3793 61.8904 13.0648 61.762 12.717C61.5856 12.2411 61.4926 11.7385 61.487 11.231C61.448 10.388 61.44 10.131 61.44 7.998C61.44 5.865 61.448 5.609 61.487 4.765C61.4933 4.25761 61.5863 3.75504 61.762 3.279C61.8909 2.93143 62.0959 2.6171 62.362 2.359C62.6197 2.09238 62.9341 1.88729 63.282 1.759C63.7579 1.58265 64.2605 1.48962 64.768 1.484C65.611 1.445 65.868 1.437 68 1.437C70.132 1.437 70.389 1.445 71.233 1.484C71.7404 1.49029 72.243 1.5833 72.719 1.759C73.0667 1.88766 73.3811 2.0927 73.639 2.359C73.9053 2.61692 74.1103 2.93131 74.239 3.279C74.4154 3.75486 74.5084 4.25755 74.514 4.765C74.553 5.609 74.561 5.865 74.561 7.998C74.561 10.131 74.553 10.387 74.514 11.231C74.508 11.7384 74.4149 12.241 74.239 12.717C74.1058 13.062 73.9018 13.3754 73.6402 13.6368C73.3786 13.8983 73.0651 14.102 72.72 14.235C72.2441 14.4114 71.7415 14.5044 71.234 14.51C70.391 14.549 70.134 14.557 68.001 14.557C65.868 14.557 65.612 14.549 64.769 14.51L64.768 14.512ZM64.7 0.048C64.037 0.0614449 63.381 0.187228 62.76 0.42C62.2262 0.621021 61.7426 0.936001 61.343 1.343C60.9356 1.74233 60.6206 2.22598 60.42 2.76C60.1873 3.381 60.0615 4.03696 60.048 4.7C60.009 5.555 60 5.827 60 8C60 10.173 60.009 10.445 60.048 11.3C60.0615 11.963 60.1872 12.619 60.42 13.24C60.6206 13.774 60.9357 14.2576 61.343 14.657C61.7428 15.0638 62.2263 15.3787 62.76 15.58C63.3816 15.8129 64.0383 15.9387 64.702 15.952C65.555 15.99 65.827 16 68 16C70.173 16 70.445 15.991 71.3 15.952C71.9637 15.9388 72.6204 15.813 73.242 15.58C73.7735 15.3745 74.2563 15.0602 74.6592 14.6572C75.0622 14.2543 75.3765 13.7715 75.582 13.24C75.8153 12.6185 75.9411 11.9618 75.954 11.298C75.99 10.445 76 10.173 76 8C76 5.827 75.991 5.555 75.952 4.7C75.9386 4.03695 75.8128 3.38099 75.58 2.76C75.3787 2.22634 75.0637 1.74284 74.657 1.343C74.2578 0.935898 73.7746 0.62089 73.241 0.42C72.6197 0.186967 71.9634 0.0611776 71.3 0.048C70.446 0.01 70.173 0 68 0C65.827 0 65.555 0.009 64.7 0.048Z" fill="url(#paint1_radial_5_161)"/>
<defs>
<radialGradient id="paint0_radial_5_161" cx="0" cy="0" r="1" gradientUnits="userSpaceOnUse" gradientTransform="translate(62.128 16.08) scale(20.88)">
<stop offset="0.09" stop-color="#FA8F21"/>
<stop offset="0.78" stop-color="#D82D7E"/>
</radialGradient>
<radialGradient id="paint1_radial_5_161" cx="0" cy="0" r="1" gradientUnits="userSpaceOnUse" gradientTransform="translate(69.696 16.8) scale(16.464)">
<stop offset="0.64" stop-color="#8C3AAA" stop-opacity="0"/>
<stop offset="1" stop-color="#8C3AAA"/>
</radialGradient>
</defs>
</svg>
